<svg width="34" height="34" viewBox="0 0 34 34" fill="none" xmlns="http://www.w3.org/2000/svg">
<path d="M16.6667 20.8334V16.6667M16.6667 16.6667V12.5001M16.6667 16.6667H12.5001M16.6667 16.6667H20.8334M16.6669 29.1667C14.3959 29.1667 12.2664 28.5611 10.431 27.5025C10.2497 27.3979 10.1589 27.3457 10.0736 27.3221C9.99421 27.3002 9.92335 27.2928 9.84118 27.2984C9.7536 27.3044 9.66299 27.3346 9.48285 27.3946L6.27517 28.4639L6.27265 28.465C5.5958 28.6906 5.25674 28.8036 5.03141 28.7233C4.83508 28.6533 4.68035 28.4983 4.61034 28.302C4.53004 28.0768 4.64269 27.7389 4.86799 27.063L4.86933 27.0588L5.93714 23.8553L5.93968 23.8486C5.9992 23.6701 6.02933 23.5797 6.03529 23.4925C6.04091 23.4103 6.03342 23.339 6.01148 23.2596C5.98822 23.1754 5.93686 23.0864 5.835 22.9098L5.8309 22.9027C4.77236 21.0673 4.16675 18.9377 4.16675 16.6667C4.16675 9.76319 9.76319 4.16675 16.6667 4.16675C23.5703 4.16675 29.1667 9.76319 29.1667 16.6667C29.1667 23.5703 23.5705 29.1667 16.6669 29.1667Z" stroke="white" stroke-width="2" stroke-linecap="round" stroke-linejoin="round"/>
</svg>
